<svg height="436pt" viewBox="0 -27 436.90667 436" width="436pt" xmlns="http://www.w3.org/2000/svg"><path d="m427.519531 61.894531c-7.289062-23.71875-29.359375-40.960937-55.464843-40.960937h-307.203126c-26.105468 0-48.175781 17.242187-55.464843 40.960937h-2.558594v20.480469h.171875c1.777344 30.445312 26.960938 54.613281 57.851562 54.613281h307.203126c30.894531 0 56.078124-24.167969 57.851562-54.613281h.171875v-20.480469zm0 0" fill="#0e65e5"/><path d="m372.054688 143.8125h-307.203126c-33.75 0-61.820312-26.011719-64.558593-59.503906-.191407-.617188-.292969-1.261719-.292969-1.933594v-20.480469c0-2.90625 1.8125-5.386719 4.371094-6.375 9.609375-24.953125 33.367187-41.414062 60.480468-41.414062h307.203126c27.113281 0 50.871093 16.460937 60.480468 41.414062 2.558594.988281 4.371094 3.46875 4.371094 6.375v20.480469c0 .691406-.105469 1.367188-.300781 2-2.773438 33.457031-30.816407 59.4375-64.550781 59.4375zm-358.402344-62.945312c.089844.359374.140625.726562.160156 1.105468 1.574219 27.019532 23.992188 48.1875 51.039062 48.1875h307.203126c27.046874 0 49.464843-21.167968 51.039062-48.1875.019531-.386718.074219-.765625.160156-1.132812v-13.617188c-1.046875-.832031-1.847656-1.980468-2.261718-3.320312-6.640626-21.621094-26.304688-36.140625-48.9375-36.140625h-307.203126c-22.632812 0-42.296874 14.519531-48.9375 36.136719-.414062 1.339843-1.214843 2.488281-2.261718 3.320312zm0 0" fill="#0e65e5"/><path d="m372.054688 123.332031h-307.203126c-32.046874 0-58.023437-25.976562-58.023437-58.023437 0-32.050782 25.976563-58.027344 58.023437-58.027344h307.203126c32.046874 0 58.023437 25.976562 58.023437 58.027344 0 32.046875-25.976563 58.023437-58.023437 58.023437zm0 0" fill="#94c1ff"/><path d="m372.054688 130.160156h-307.203126c-35.757812 0-64.851562-29.09375-64.851562-64.851562 0-35.761719 29.09375-64.855469 64.851562-64.855469h307.203126c35.757812 0 64.851562 29.09375 64.851562 64.855469 0 35.757812-29.09375 64.851562-64.851562 64.851562zm-307.203126-116.054687c-28.230468 0-51.199218 22.96875-51.199218 51.203125 0 28.230468 22.96875 51.199218 51.199218 51.199218h307.203126c28.230468 0 51.199218-22.96875 51.199218-51.199218 0-28.234375-22.96875-51.203125-51.199218-51.203125zm0 0" fill="#0e65e5"/><path d="m122.878906 34.585938h-68.265625c-3.773437 0-6.828125-3.050782-6.828125-6.824219 0-3.773438 3.054688-6.828125 6.828125-6.828125h68.265625c3.773438 0 6.828125 3.054687 6.828125 6.828125 0 3.773437-3.054687 6.824219-6.828125 6.824219zm0 0" fill="#fff"/><path d="m141.308594 96.539062h-10.214844v-62.984374h35.546875v8.699218h-25.332031v19.6875h23.738281v8.746094h-23.738281zm0 0" fill="#0e65e5"/><path d="m188.351562 71.378906v25.160156h-10.296874v-62.984374h17.792968c8.132813 0 14.144532 1.519531 18.050782 4.566406 3.90625 3.039062 5.863281 7.640625 5.863281 13.785156 0 7.84375-4.082031 13.425781-12.234375 16.761719l17.792968 27.871093h-11.71875l-15.082031-25.160156zm0-8.53125h7.152344c4.796875 0 8.269532-.886718 10.425782-2.667968 2.15625-1.785157 3.230468-4.425782 3.230468-7.929688 0-3.5625-1.160156-6.113281-3.488281-7.667969-2.324219-1.550781-5.832031-2.324219-10.511719-2.324219h-6.808594zm0 0" fill="#0e65e5"/><path d="m270.085938 96.539062h-35.632813v-62.984374h35.632813v8.699218h-25.332032v17.148438h23.738282v8.621094h-23.738282v19.773437h25.332032zm0 0" fill="#0e65e5"/><path d="m319.332031 96.539062h-35.632812v-62.984374h35.632812v8.699218h-25.332031v17.148438h23.738281v8.621094h-23.738281v19.773437h25.332031zm0 0" fill="#0e65e5"/><path d="m163.601562 164.292969-54.375-6.828125v-64.851563c0-9.425781-7.640624-17.066406-17.066406-17.066406-9.425781 0-17.066406 7.640625-17.066406 17.066406v161.351563c0 12.535156 8.761719 22.976562 20.480469 25.664062v96.292969h88.746093v-96.292969c11.71875-2.6875 20.480469-13.128906 20.480469-25.664062v-48.472656c0-22.753907-18.445312-41.199219-41.199219-41.199219zm0 0" fill="#d7e9ff"/><g fill="#0e65e5"><path d="m184.320312 382.746094h-88.746093c-3.773438 0-6.828125-3.050782-6.828125-6.824219v-91.320313c-12.285156-5.054687-20.480469-16.976562-20.480469-30.640624v-161.347657c0-13.171875 10.71875-23.894531 23.894531-23.894531 13.171875 0 23.894532 10.722656 23.894532 23.894531v58.832031l47.984374 6.019532c26.28125.242187 47.585938 21.695312 47.585938 48.027344v48.46875c0 13.664062-8.191406 25.585937-20.476562 30.640624v91.320313c0 3.773437-3.054688 6.824219-6.828126 6.824219zm-81.921874-13.652344h75.09375v-89.46875c0-3.179688 2.199218-5.9375 5.300781-6.652344 8.9375-2.046875 15.179687-9.863281 15.179687-19.011718v-48.46875c0-18.949219-15.417968-34.371094-34.375-34.371094-.285156 0-.566406-.023438-.851562-.054688l-54.371094-6.824218c-3.414062-.429688-5.976562-3.335938-5.976562-6.777344v-64.851563c0-5.648437-4.589844-10.238281-10.238282-10.238281-5.648437 0-10.238281 4.589844-10.238281 10.238281v161.347657c0 9.144531 6.238281 16.964843 15.179687 19.011718 3.097657.714844 5.296876 3.472656 5.296876 6.652344zm0 0"/><path d="m109.226562 198.425781c-3.773437 0-6.828124-3.050781-6.828124-6.824219v-34.136718c0-3.773438 3.054687-6.824219 6.828124-6.824219 3.773438 0 6.828126 3.050781 6.828126 6.824219v34.136718c0 3.773438-3.054688 6.824219-6.828126 6.824219zm0 0"/><path d="m136.535156 191.601562c-3.773437 0-6.828125-3.054687-6.828125-6.828124v-20.480469c0-3.773438 3.054688-6.828125 6.828125-6.828125 3.773438 0 6.824219 3.054687 6.824219 6.828125v20.480469c0 3.773437-3.050781 6.828124-6.824219 6.828124zm0 0"/><path d="m163.839844 191.601562c-3.773438 0-6.828125-3.054687-6.828125-6.828124v-20.480469c0-3.773438 3.054687-6.828125 6.828125-6.828125 3.773437 0 6.828125 3.054687 6.828125 6.828125v20.480469c0 3.773437-3.054688 6.828124-6.828125 6.828124zm0 0"/><path d="m282.71875 180.773438c-1.746094 0-3.492188-.667969-4.824219-2l-19.308593-19.304688c-2.664063-2.667969-2.664063-6.988281 0-9.65625 2.667968-2.664062 6.988281-2.664062 9.652343 0l19.308594 19.308594c2.664063 2.664062 2.664063 6.984375 0 9.652344-1.332031 1.332031-3.078125 2-4.828125 2zm0 0"/><path d="m263.414062 180.773438c-1.746093 0-3.492187-.667969-4.828124-2-2.664063-2.667969-2.664063-6.988282 0-9.652344l19.308593-19.308594c2.664063-2.664062 6.984375-2.664062 9.652344 0 2.664063 2.667969 2.664063 6.988281 0 9.65625l-19.308594 19.304688c-1.332031 1.332031-3.078125 2-4.824219 2zm0 0"/><path d="m350.984375 249.039062c-1.742187 0-3.492187-.667968-4.824219-2l-19.304687-19.304687c-2.667969-2.667969-2.667969-6.988281 0-9.652344 2.664062-2.667969 6.984375-2.667969 9.652343 0l19.304688 19.304688c2.664062 2.664062 2.664062 6.988281 0 9.652343-1.332031 1.335938-3.078125 2-4.828125 2zm0 0"/><path d="m331.679688 249.039062c-1.746094 0-3.492188-.667968-4.824219-2-2.667969-2.664062-2.667969-6.988281 0-9.652343l19.304687-19.304688c2.664063-2.667969 6.988282-2.667969 9.652344 0 2.664062 2.664063 2.664062 6.984375 0 9.652344l-19.304688 19.304687c-1.332031 1.335938-3.082031 2-4.828124 2zm0 0"/></g><path d="m163.839844 280.347656c-3.773438 0-6.828125-3.054687-6.828125-6.828125v-27.304687c0-3.773438 3.054687-6.828125 6.828125-6.828125 3.773437 0 6.828125 3.054687 6.828125 6.828125v27.304687c0 3.773438-3.054688 6.828125-6.828125 6.828125zm0 0" fill="#fff"/><path d="m177.492188 266.691406h-27.304688c-3.773438 0-6.828125-3.050781-6.828125-6.824218 0-3.773438 3.054687-6.828126 6.828125-6.828126h27.304688c3.773437 0 6.828124 3.054688 6.828124 6.828126 0 3.773437-3.054687 6.824218-6.828124 6.824218zm0 0" fill="#fff"/></svg>