<svg height="512" viewBox="0 0 64 64" width="512" xmlns="http://www.w3.org/2000/svg"><g id="testing"><path d="m54 24a5 5 0 0 1 -5 5h-34a5 5 0 0 1 0-10h1c-.28-.78-1-1.62-1-2.5a7.495 7.495 0 0 1 14.01-3.71 10 10 0 1 1 17.98 6.21h2.01a5 5 0 0 1 5 5z" fill="#57a4ff"/><path d="m54 24a5 5 0 0 1 -5 5h-4a5 5 0 0 0 0-10h-2.01a9.992 9.992 0 0 0 -5.98-15.8 9.991 9.991 0 0 1 9.98 15.8h2.01a5 5 0 0 1 5 5z" fill="#2488ff"/><path d="m51.88 57-.46 2.56a2 2 0 0 1 -1.92 1.44h-35a2 2 0 0 1 -1.92-1.44l-.46-2.56h16.88v1h6v-1z" fill="#c6c5ca"/><path d="m50 35v22h-15v1h-6v-1h-15v-22a2.006 2.006 0 0 1 2-2h32a2.006 2.006 0 0 1 2 2z" fill="#46f8ff"/><path d="m51.88 57-.46 2.56a2 2 0 0 1 -1.92 1.44h-6a2 2 0 0 0 1.92-1.44l.46-2.56z" fill="#acabb1"/><path d="m50 35v22h-6v-22a2.006 2.006 0 0 0 -2-2h6a2.006 2.006 0 0 1 2 2z" fill="#00e7f0"/><path d="m35 31a3 3 0 1 0 -3 3 3 3 0 0 0 3-3z" fill="#c0ab91"/><path d="m40 33-1.98.49 1.05 1.75-2.83 2.83-1.75-1.05-.49 1.98h-4l-.49-1.98-1.75 1.05-2.83-2.83 1.05-1.75-1.98-.49v-4l1.98-.49-1.05-1.75 2.83-2.83 1.75 1.05.49-1.98h4l.49 1.98 1.75-1.05 2.83 2.83-1.05 1.75 1.98.49z" fill="#c0ab91"/><path d="m40 33-1.98.49 1.05 1.75-2.83 2.83-1.75-1.05-.49 1.98h-4l-.49-1.98-1.75 1.05-1.21-1.21a12.484 12.484 0 0 0 8.45-4.86 12.048 12.048 0 0 0 2.28-7.03l1.79 1.79-1.05 1.75 1.98.49z" fill="#b39a7c"/><circle cx="32" cy="31" fill="#ffde55" r="3"/><path d="m49 30a6 6 0 0 0 0-12h-.21a10.792 10.792 0 0 0 1.21-5 11 11 0 0 0 -21.67-2.67 8.488 8.488 0 0 0 -14.33 6.17 3.507 3.507 0 0 0 .4 1.53 6 6 0 0 0 .6 11.97h8v2h-7a3.009 3.009 0 0 0 -3 3v21h-.88a1 1 0 0 0 -.98 1.17l.46 2.56a.359.359 0 0 0 .02.11 3.021 3.021 0 0 0 2.88 2.16h35a3.021 3.021 0 0 0 2.88-2.16.359.359 0 0 0 .02-.11l.46-2.56a1 1 0 0 0 -.98-1.17h-.88v-21a3.009 3.009 0 0 0 -3-3h-7v-2zm1.68 28-.23 1.32a1.014 1.014 0 0 1 -.95.68h-35a1.014 1.014 0 0 1 -.95-.68l-.23-1.32h14.68a1 1 0 0 0 1 1h6a1 1 0 0 0 1-1zm-2.68-24a1 1 0 0 1 1 1v21h-14a1 1 0 0 0 -1 1h-4a1 1 0 0 0 -1-1h-14v-21a1 1 0 0 1 1-1h7.88l.55.14-.36.59a1 1 0 0 0 .15 1.22l2.83 2.83a1.014 1.014 0 0 0 1.22.15l.59-.36.17.67a1 1 0 0 0 .97.76h4a1 1 0 0 0 .97-.76l.17-.67.59.36a1.014 1.014 0 0 0 1.22-.15l2.83-2.83a1 1 0 0 0 .15-1.22l-.36-.59.55-.14zm-21.17-6.01-.64-1.08 1.72-1.72 1.08.64a.989.989 0 0 0 .9.07 1.007 1.007 0 0 0 .59-.68l.3-1.22h2.44l.3 1.22a1.007 1.007 0 0 0 .59.68.989.989 0 0 0 .9-.07l1.08-.64 1.72 1.72-.64 1.08a.989.989 0 0 0 -.07.9 1.007 1.007 0 0 0 .68.59l1.22.3v2.44l-1.22.3a1.007 1.007 0 0 0 -.68.59.989.989 0 0 0 .07.9l.64 1.08-1.72 1.72-1.08-.65a1.019 1.019 0 0 0 -.9-.06 1.007 1.007 0 0 0 -.59.68l-.3 1.22h-2.44l-.3-1.22a1.007 1.007 0 0 0 -.59-.68 1.019 1.019 0 0 0 -.9.06l-1.08.65-1.72-1.72.64-1.08a.989.989 0 0 0 .07-.9 1.007 1.007 0 0 0 -.68-.59l-1.22-.3v-2.44l1.22-.3a1.007 1.007 0 0 0 .68-.59.989.989 0 0 0 -.07-.9zm13.29.01-.55-.14.36-.59a1 1 0 0 0 -.15-1.22l-2.83-2.83a1 1 0 0 0 -1.22-.15l-.59.36-.17-.67a1 1 0 0 0 -.97-.76h-4a1 1 0 0 0 -.97.76l-.17.67-.59-.36a1.014 1.014 0 0 0 -1.22.15l-2.83 2.83a1 1 0 0 0 -.15 1.22l.36.59-.55.14h-8.88a4 4 0 0 1 0-8h1a1.014 1.014 0 0 0 .82-.42 1.035 1.035 0 0 0 .12-.92 6.909 6.909 0 0 0 -.47-.99 3.068 3.068 0 0 1 -.47-1.17 6.492 6.492 0 0 1 12.14-3.21 1 1 0 0 0 1.87-.48 9 9 0 1 1 16.18 5.59 1 1 0 0 0 .8 1.6h2.01a4 4 0 0 1 0 8z"/><path d="m32 27a4 4 0 1 0 4 4 4 4 0 0 0 -4-4zm0 6a2 2 0 1 1 2-2 2 2 0 0 1 -2 2z"/><path d="m44 13h2a7.008 7.008 0 0 0 -7-7v2a5.006 5.006 0 0 1 5 5z"/><path d="m18.03 15.976 1.987.232a2.5 2.5 0 0 1 2.483-2.208v-2a4.5 4.5 0 0 0 -4.47 3.976z"/><path d="m61 24h-4v2h3v17h-7v2h8a1 1 0 0 0 1-1v-19a1 1 0 0 0 -1-1z"/><path d="m4 26h3v-2h-4a1 1 0 0 0 -1 1v19a1 1 0 0 0 1 1h8v-2h-7z"/><path d="m35.471 47.115-4.178 4.178 1.414 1.414 4.178-4.178a5.961 5.961 0 0 1 1.115 3.471h2a7.953 7.953 0 0 0 -1.688-4.9l4.4-4.395-1.414-1.414-4.395 4.4a7.987 7.987 0 0 0 -12.903 6.309h2a5.99 5.99 0 0 1 9.471-4.885z"/><path d="m17 36h6v2h-6z"/><path d="m17 40h6v2h-6z"/><path d="m42 48h6v2h-6z"/><path d="m42 52h6v2h-6z"/></g></svg>