<svg height="512" viewBox="0 0 64 64" width="512" xmlns="http://www.w3.org/2000/svg"><g id="Layer_34" data-name="Layer 34"><g id="_24_hour" data-name="24 hour"><path d="m61 42v10l-16 6v-10h3a3 3 0 0 1 6 0h2v-6z" fill="#ffdaaa"/><path d="m61 33v9h-5l-2-4 3-5z" fill="#ffdaaa"/><path d="m61 42v10l-16 6v-.75l14-5.25v-10z" fill="#ffc477"/><path d="m59 33h2v9h-2z" fill="#ffc477"/><circle cx="50" cy="14" fill="#ffde55" r="11"/><path d="m61 14a11 11 0 0 1 -20.52 5.52 11.007 11.007 0 0 0 15.04-15.04 10.98 10.98 0 0 1 5.48 9.52z" fill="#ffcd00"/><path d="m19 48h26v13h-26z" fill="#57a4ff"/><path d="m41 48h4v13h-4z" fill="#2488ff"/><path d="m41 34v1a1 1 0 0 1 -1 1h-2v-3h2a1 1 0 0 1 1 1z" fill="#ffdaaa"/><path d="m41 29v1l-3 3v-3l-8-2-4 2v3l-3-3v-1a6 6 0 0 1 6-6h6a6 6 0 0 1 6 6z" fill="#c0ab91"/><path d="m39 48-2 8h-10l-2-8 7 4z" fill="#ffde55"/><path d="m39 48-7 4-7-4 4-3v-3.81a5.961 5.961 0 0 0 6 0v3.81z" fill="#ffdaaa"/><path d="m38 30v6a5.985 5.985 0 0 1 -3 5.19 5.961 5.961 0 0 1 -6 0 5.985 5.985 0 0 1 -3-5.19v-6l4-2z" fill="#ffdaaa"/><path d="m41 29v1l-3 3v-2l1-1v-1a6 6 0 0 0 -6-6h2a6 6 0 0 1 6 6z" fill="#b39a7c"/><path d="m39 48-7 4-1-.57 6-3.43-4-3v-3.08a5.79 5.79 0 0 0 2-.73v3.81z" fill="#ffc477"/><path d="m38 30v6a5.97 5.97 0 0 1 -3 5.19 5.857 5.857 0 0 1 -3 .81 6.531 6.531 0 0 1 -1-.08 5.79 5.79 0 0 0 2-.73 5.97 5.97 0 0 0 3-5.19v-6l-6.67-1.67.67-.33z" fill="#ffc477"/><path d="m26 33v3h-2a1 1 0 0 1 -1-1v-1a1 1 0 0 1 1-1z" fill="#ffdaaa"/><path d="m25 18-1.98.49 1.05 1.75-2.83 2.83-1.75-1.05-.49 1.98h-4l-.49-1.98-1.75 1.05-2.83-2.83.74-1.24 6.66-11h1.67l.49 1.98 1.75-1.05 2.83 2.83-1.05 1.75 1.98.49z" fill="#b39a7c"/><path d="m20 16a3 3 0 0 1 -5.53 1.61l.77.46 2.83-2.83-1.05-1.75 1.09-.27a2.97 2.97 0 0 1 1.89 2.78z" fill="#ffde55"/><path d="m19 48v10l-16-6v-10h5v6h2a3 3 0 0 1 6 0z" fill="#ffdaaa"/><path d="m19 9v4l-.89.22-1.09.27 1.05 1.75-2.83 2.83-.77-.46-.98-.59-.49 1.98h-4l-.49-1.98-1.75 1.05-2.83-2.83 1.05-1.75-1.98-.49v-4l1.98-.49-1.05-1.75 2.83-2.83 1.75 1.05.49-1.98h4l.49 1.98 1.75-1.05 2.83 2.83-.74 1.24-.31.51z" fill="#c0ab91"/><circle cx="11" cy="11" fill="#ffde55" r="3"/><path d="m7 33 3 5-2 4h-5v-9z" fill="#ffdaaa"/><path d="m29 32h2v2h-2z"/><path d="m33 32h2v2h-2z"/><path d="m50 2a12 12 0 1 0 12 12 12.01 12.01 0 0 0 -12-12zm0 22a10 10 0 1 1 10-10 10.016 10.016 0 0 1 -10 10z"/><path d="m46 15v1h3v2h-4a1 1 0 0 1 -1-1v-3a1 1 0 0 1 1-1h2v-1h-3v-2h4a1 1 0 0 1 1 1v3a1 1 0 0 1 -1 1z"/><path d="m56 10v8h-2v-3h-2a1 1 0 0 1 -1-1v-4h2v3h1v-3z"/><path d="m49 34h-5v2h6a1 1 0 0 0 1-1v-7h-2z"/><path d="m13 27v8a1 1 0 0 0 1 1h6v-2h-5v-7z"/><path d="m11 15a4 4 0 1 0 -4-4 4 4 0 0 0 4 4zm0-6a2 2 0 1 1 -2 2 2 2 0 0 1 2-2z"/><path d="m25.24 13.03-.67-.17.36-.59a1.014 1.014 0 0 0 -.15-1.22l-2.83-2.83a1.014 1.014 0 0 0 -1.22-.15l-.59.36-.17-.67a.982.982 0 0 0 -.94-.75 1 1 0 0 0 -.25-.96l-2.83-2.83a1.012 1.012 0 0 0 -1.22-.15l-.59.36-.17-.67a1 1 0 0 0 -.97-.76h-4a1 1 0 0 0 -.97.76l-.17.67-.59-.36a1.014 1.014 0 0 0 -1.22.15l-2.83 2.83a1 1 0 0 0 -.15 1.22l.36.59-.67.17a1 1 0 0 0 -.76.97v4a1 1 0 0 0 .76.97l.67.17-.36.59a1 1 0 0 0 .15 1.22l2.83 2.83a1.012 1.012 0 0 0 1.22.15l.59-.36.17.67a.982.982 0 0 0 .94.75 1 1 0 0 0 .25.96l2.83 2.83a1.014 1.014 0 0 0 1.22.15l.59-.36.17.67a1 1 0 0 0 .97.76h4a1 1 0 0 0 .97-.76l.17-.67.59.36a1.014 1.014 0 0 0 1.22-.15l2.83-2.83a1.014 1.014 0 0 0 .15-1.22l-.36-.59.67-.17a1 1 0 0 0 .76-.97v-4a1 1 0 0 0 -.76-.97zm-6.28 2.67c.01.1.04.2.04.3a2.006 2.006 0 0 1 -2 2 1.967 1.967 0 0 1 -.24-.03l2.02-2.02a1.138 1.138 0 0 0 .18-.25zm-9.48 1.08a1.007 1.007 0 0 0 -.59-.68 1.019 1.019 0 0 0 -.9.06l-1.08.65-1.72-1.72.65-1.08a1.019 1.019 0 0 0 .06-.9 1.007 1.007 0 0 0 -.68-.59l-1.22-.3v-2.44l1.22-.3a1.007 1.007 0 0 0 .68-.59 1.019 1.019 0 0 0 -.06-.9l-.65-1.08 1.72-1.72 1.08.64a.989.989 0 0 0 .9.07 1.007 1.007 0 0 0 .59-.68l.3-1.22h2.44l.3 1.22a1.007 1.007 0 0 0 .59.68.989.989 0 0 0 .9-.07l1.08-.64 1.72 1.72-.65 1.08a1.019 1.019 0 0 0 -.06.9 1.007 1.007 0 0 0 .68.59l1.22.3v2.44l-1.22.3a1.007 1.007 0 0 0 -.68.59 1.019 1.019 0 0 0 .06.9l.65 1.08-1.72 1.72-1.08-.65a1.019 1.019 0 0 0 -.9-.06 1.007 1.007 0 0 0 -.59.68l-.3 1.22h-2.44zm14.52.44-1.22.3a.984.984 0 0 0 -.68.59 1 1 0 0 0 .06.89l.65 1.08-1.73 1.73-1.08-.65a1 1 0 0 0 -.89-.06.984.984 0 0 0 -.59.68l-.3 1.22h-2.44l-.3-1.22a.984.984 0 0 0 -.59-.68 1 1 0 0 0 -.89.06l-1.08.65-1.73-1.73.05-.08h1.76a1 1 0 0 0 .97-.76l.13-.5a3.931 3.931 0 0 0 2.9 1.26 4.006 4.006 0 0 0 2.95-6.71.929.929 0 0 0 .05-.29v-2.16l1.08-.65 1.73 1.73-.65 1.08a1 1 0 0 0 -.06.89.984.984 0 0 0 .68.59l1.22.3z"/><path d="m61 32h-4a.99.99 0 0 0 -.86.49l-3 5a.992.992 0 0 0 -.03.96l1.89 3.79v4.76h-.13a4 4 0 0 0 -7.74 0h-7.8l-3.33-2.5v-2.76a7.007 7.007 0 0 0 2.92-4.74h1.08a2.006 2.006 0 0 0 2-2v-1a2 2 0 0 0 -1.62-1.96l1.33-1.33a1.033 1.033 0 0 0 .29-.71v-1a7.008 7.008 0 0 0 -7-7h-6a7.008 7.008 0 0 0 -7 7v1a1.033 1.033 0 0 0 .29.71l1.33 1.33a2 2 0 0 0 -1.62 1.96v1a2.006 2.006 0 0 0 2 2h1.08a7.007 7.007 0 0 0 2.92 4.74v2.76l-3.33 2.5h-7.8a4 4 0 0 0 -7.74 0h-.13v-4.76l1.89-3.79a.992.992 0 0 0 -.03-.96l-3-5a.99.99 0 0 0 -.86-.49h-4a1 1 0 0 0 -1 1v19a1.007 1.007 0 0 0 .65.94l15.35 5.75v2.31a1 1 0 0 0 1 1h26a1 1 0 0 0 1-1v-2.31l15.35-5.75a1.007 1.007 0 0 0 .65-.94v-19a1 1 0 0 0 -1-1zm-57 2h2.43l2.43 4.04-1.48 2.96h-3.38zm14 22.56-14-5.25v-8.31h3v5a1 1 0 0 0 1 1h2a1 1 0 0 0 1-1 2 2 0 0 1 4 0 1 1 0 0 0 1 1h2zm22-21.56h-1v-1h1zm-15 0h-1v-1h1zm.55-5.89a.977.977 0 0 0 -.55.89v.59l-1-1v-.59a5 5 0 0 1 5-5h6a5 5 0 0 1 5 5v.59l-1 1v-.59a1 1 0 0 0 -.76-.97l-8-2a.978.978 0 0 0 -.69.08zm1.45 6.89v-5.38l3.12-1.56 6.88 1.72v5.22a5 5 0 0 1 -10 0zm2.6 9.8a1.014 1.014 0 0 0 .4-.8v-2.29a7.042 7.042 0 0 0 4 0v2.29a1.014 1.014 0 0 0 .4.8l2.78 2.09-5.18 2.96-5.18-2.96zm1.9 7.07a1.044 1.044 0 0 0 1 0l4.96-2.84-1.24 4.97h-8.44l-1.24-4.97zm12.5 7.13h-24v-11h4.22l1.81 7.24a1 1 0 0 0 .97.76h10a1 1 0 0 0 .97-.76l1.81-7.24h4.22zm16-8.69-14 5.25v-7.56h2a1 1 0 0 0 1-1 2 2 0 0 1 4 0 1 1 0 0 0 1 1h2a1 1 0 0 0 1-1v-5h3zm0-10.31h-3.38l-1.48-2.96 2.43-4.04h2.43z"/></g></g></svg>